<svg width="51" height="50" viewBox="0 0 51 50" fill="none" xmlns="http://www.w3.org/2000/svg">
<path fill-rule="evenodd" clip-rule="evenodd" d="M8.34397 6.25065C7.1919 6.25065 6.25796 7.18339 6.25796 8.33399V41.6673C6.25796 42.8179 7.1919 43.7506 8.34397 43.7506H16.688V47.9173H8.34397C4.88776 47.9173 2.08594 45.1191 2.08594 41.6673V8.33399C2.08594 4.88221 4.88776 2.08398 8.34397 2.08398H18.1942C19.7599 2.08398 21.2687 2.67014 22.4229 3.72677L32.3898 12.8513C33.6829 14.0352 34.4191 15.7066 34.4191 17.4586V20.834H30.2471V17.4586C30.2471 16.8746 30.0017 16.3174 29.5707 15.9228L19.6038 6.79825C19.219 6.44604 18.7161 6.25065 18.1942 6.25065H8.34397Z" fill="white"/>
<path fill-rule="evenodd" clip-rule="evenodd" d="M17.7324 11.4596V4.16797H21.9044V11.4596C21.9044 12.6102 22.8384 13.543 23.9905 13.543H31.2915V17.7096H23.9905C20.5342 17.7096 17.7324 14.9114 17.7324 11.4596Z" fill="white"/>
<path fill-rule="evenodd" clip-rule="evenodd" d="M17.0113 35.418C17.6984 36.5128 19.013 38.3594 20.9372 40.0386C23.2495 42.0563 26.3425 43.7513 30.2485 43.7513C34.1546 43.7513 37.2476 42.0563 39.5599 40.0386C41.4841 38.3594 42.7987 36.5128 43.4858 35.418C42.7987 34.3232 41.4841 32.4765 39.5599 30.7974C37.2476 28.7796 34.1546 27.0846 30.2485 27.0846C26.3425 27.0846 23.2495 28.7796 20.9372 30.7974C19.013 32.4765 17.6984 34.3232 17.0113 35.418ZM18.1922 27.6597C21.0118 25.1992 25.0413 22.918 30.2485 22.918C35.4557 22.918 39.4853 25.1992 42.3049 27.6597C45.1113 30.1086 46.8174 32.8147 47.4548 33.927C47.9851 34.8527 47.9851 35.9833 47.4548 36.9089C46.8174 38.0212 45.1113 40.7274 42.3049 43.1763C39.4853 45.6367 35.4557 47.918 30.2485 47.918C25.0413 47.918 21.0118 45.6367 18.1922 43.1763C15.3858 40.7274 13.6796 38.0212 13.0423 36.9089C12.5119 35.9833 12.5119 34.8527 13.0423 33.927C13.6796 32.8147 15.3858 30.1086 18.1922 27.6597Z" fill="white"/>
<path fill-rule="evenodd" clip-rule="evenodd" d="M30.2483 33.3346C29.0962 33.3346 28.1623 34.2674 28.1623 35.418C28.1623 36.5686 29.0962 37.5013 30.2483 37.5013C31.4003 37.5013 32.3343 36.5686 32.3343 35.418C32.3343 34.2674 31.4003 33.3346 30.2483 33.3346ZM23.9902 35.418C23.9902 31.9662 26.7921 29.168 30.2483 29.168C33.7045 29.168 36.5063 31.9662 36.5063 35.418C36.5063 38.8697 33.7045 41.668 30.2483 41.668C26.7921 41.668 23.9902 38.8697 23.9902 35.418Z" fill="white"/>
</svg>
