<svg width="25" height="24" viewBox="0 0 25 24" fill="none" xmlns="http://www.w3.org/2000/svg">
<path fill-rule="evenodd" clip-rule="evenodd" d="M4.5 1.5C3.11929 1.5 2 2.61929 2 4V20C2 21.3807 3.11929 22.5 4.5 22.5H12.5C12.7761 22.5 13 22.2761 13 22V14.5C13 14.2239 12.7761 14 12.5 14H10.5V11.5H12.5C12.7761 11.5 13 11.2761 13 11V8C13 6.34315 14.3431 5 16 5H19V7.5H18C16.8954 7.5 16 8.39543 16 9.5V11C16 11.2761 16.2239 11.5 16.5 11.5H18.8371L18.1228 14H16.5C16.2239 14 16 14.2239 16 14.5V22C16 22.2761 16.2239 22.5 16.5 22.5H20.5C21.8807 22.5 23 21.3807 23 20V4C23 2.61929 21.8807 1.5 20.5 1.5H4.5Z" fill="#0A58CA"/>
</svg>
