<svg width="25" height="24" viewBox="0 0 25 24" fill="none" xmlns="http://www.w3.org/2000/svg">
<path fill-rule="evenodd" clip-rule="evenodd" d="M7 1C3.96243 1 1.5 3.46243 1.5 6.5V17.5C1.5 20.5376 3.96243 23 7 23H18C21.0376 23 23.5 20.5376 23.5 17.5V6.5C23.5 3.46243 21.0376 1 18 1H7ZM12.5 8C10.2909 8 8.5 9.79086 8.5 12C8.5 14.2091 10.2909 16 12.5 16C14.7091 16 16.5 14.2091 16.5 12C16.5 9.79086 14.7091 8 12.5 8ZM6.5 12C6.5 8.68629 9.18629 6 12.5 6C15.8137 6 18.5 8.68629 18.5 12C18.5 15.3137 15.8137 18 12.5 18C9.18629 18 6.5 15.3137 6.5 12ZM18.5 4C17.3954 4 16.5 4.89543 16.5 6C16.5 7.10457 17.3954 8 18.5 8C19.6046 8 20.5 7.10457 20.5 6C20.5 4.89543 19.6046 4 18.5 4Z" fill="#0A58CA"/>
</svg>
