<svg width="25" height="24" viewBox="0 0 25 24" fill="none" xmlns="http://www.w3.org/2000/svg">
<path fill-rule="evenodd" clip-rule="evenodd" d="M4.5 1C2.84315 1 1.5 2.34315 1.5 4C1.5 5.65685 2.84315 7 4.5 7C6.15685 7 7.5 5.65685 7.5 4C7.5 2.34315 6.15685 1 4.5 1Z" fill="#0A58CA"/>
<path fill-rule="evenodd" clip-rule="evenodd" d="M2.5 8C1.94772 8 1.5 8.44772 1.5 9V22C1.5 22.5523 1.94772 23 2.5 23H6.5C7.05228 23 7.5 22.5523 7.5 22V9C7.5 8.44772 7.05228 8 6.5 8H2.5Z" fill="#0A58CA"/>
<path fill-rule="evenodd" clip-rule="evenodd" d="M9.5 8C8.94772 8 8.5 8.44772 8.5 9V22C8.5 22.5523 8.94772 23 9.5 23H13.5C14.0523 23 14.5 22.5523 14.5 22V16C14.5 15.1716 15.1716 14.5 16 14.5C16.8284 14.5 17.5 15.1716 17.5 16V22C17.5 22.5523 17.9477 23 18.5 23H22.5C23.0523 23 23.5 22.5523 23.5 22V13.5C23.5 10.4624 21.0376 8 18 8H17.7698C16.715 8 15.6938 8.37052 14.8844 9.04686L14.5023 9.36611L14.5 8.99374C14.4965 8.44391 14.0498 8 13.5 8H9.5Z" fill="#0A58CA"/>
</svg>
