<svg width="24" height="25" viewBox="0 0 24 25" fill="none" xmlns="http://www.w3.org/2000/svg">
<path fill-rule="evenodd" clip-rule="evenodd" d="M12 3.5C8.13401 3.5 5 6.63401 5 10.5C5 13.3205 6.78023 16.0807 8.73959 18.2338C9.70054 19.2897 10.6646 20.1561 11.3893 20.7586C11.6208 20.9511 11.827 21.1159 12 21.2508C12.173 21.1159 12.3792 20.9511 12.6107 20.7586C13.3354 20.1561 14.2995 19.2897 15.2604 18.2338C17.2198 16.0807 19 13.3205 19 10.5C19 6.63401 15.866 3.5 12 3.5ZM12 22.5C11.4278 23.3201 11.4275 23.3199 11.4273 23.3197L11.4246 23.3179L11.4185 23.3136L11.3978 23.2989C11.3802 23.2865 11.3553 23.2686 11.3235 23.2456C11.2598 23.1995 11.1686 23.1325 11.0537 23.0457C10.824 22.8722 10.4991 22.6194 10.1107 22.2965C9.3354 21.6519 8.29946 20.7217 7.26041 19.5799C5.21977 17.3375 3 14.0978 3 10.5C3 5.52944 7.02944 1.5 12 1.5C16.9706 1.5 21 5.52944 21 10.5C21 14.0978 18.7802 17.3375 16.7396 19.5799C15.7005 20.7217 14.6646 21.6519 13.8893 22.2965C13.5009 22.6194 13.176 22.8722 12.9463 23.0457C12.8314 23.1325 12.7402 23.1995 12.6765 23.2456C12.6447 23.2686 12.6198 23.2865 12.6022 23.2989L12.5815 23.3136L12.5754 23.3179L12.5734 23.3193C12.5732 23.3194 12.5722 23.3201 12 22.5ZM12 22.5L12.5722 23.3201C12.2284 23.56 11.771 23.5596 11.4273 23.3197L12 22.5Z" fill="#73767C"/>
<path fill-rule="evenodd" clip-rule="evenodd" d="M12 6.5C11.4477 6.5 11 6.94772 11 7.5C11 8.05228 11.4477 8.5 12 8.5C12.5523 8.5 13 8.05228 13 7.5C13 6.94772 12.5523 6.5 12 6.5ZM9 7.5C9 5.84315 10.3431 4.5 12 4.5C13.6569 4.5 15 5.84315 15 7.5C15 9.15685 13.6569 10.5 12 10.5C10.3431 10.5 9 9.15685 9 7.5Z" fill="#73767C"/>
<path fill-rule="evenodd" clip-rule="evenodd" d="M12 12.5C10.8954 12.5 10 13.3954 10 14.5H8C8 12.2909 9.79086 10.5 12 10.5C14.2091 10.5 16 12.2909 16 14.5H14C14 13.3954 13.1046 12.5 12 12.5Z" fill="#73767C"/>
</svg>
