<svg width="8" height="11" viewBox="0 0 8 11" fill="none" xmlns="http://www.w3.org/2000/svg">
<path fill-rule="evenodd" clip-rule="evenodd" d="M4 1C2.48122 1 1.25 2.23122 1.25 3.75C1.25 5.12378 1.99529 6.7091 2.79963 8.00285C3.19485 8.63856 3.59082 9.18281 3.88806 9.56809C3.9272 9.61881 3.96459 9.66674 4 9.7117C4.03541 9.66674 4.0728 9.61881 4.11194 9.56809C4.40918 9.18281 4.80515 8.63856 5.20037 8.00285C6.00471 6.7091 6.75 5.12378 6.75 3.75C6.75 2.23122 5.51878 1 4 1ZM4 10.5C3.62412 10.8297 3.62404 10.8296 3.62395 10.8295L3.623 10.8284L3.6207 10.8258L3.61265 10.8165C3.60577 10.8086 3.5959 10.7971 3.58324 10.7823C3.55792 10.7526 3.52142 10.7095 3.47533 10.6539C3.38319 10.5426 3.25258 10.3815 3.09631 10.1789C2.78418 9.77435 2.36765 9.20202 1.95037 8.53084C1.12971 7.21083 0.25 5.42115 0.25 3.75C0.25 1.67893 1.92893 0 4 0C6.07107 0 7.75 1.67893 7.75 3.75C7.75 5.42115 6.87029 7.21083 6.04963 8.53084C5.63235 9.20202 5.21582 9.77435 4.90369 10.1789C4.74742 10.3815 4.61681 10.5426 4.52467 10.6539C4.47858 10.7095 4.44208 10.7526 4.41676 10.7823C4.4041 10.7971 4.39423 10.8086 4.38735 10.8165L4.3793 10.8258L4.377 10.8284L4.37629 10.8292C4.3762 10.8293 4.37588 10.8297 4 10.5ZM4 10.5L4.37588 10.8297C4.28095 10.9379 4.14397 11 4 11C3.85603 11 3.71888 10.9378 3.62395 10.8295L4 10.5Z" fill="#595C61"/>
<path fill-rule="evenodd" clip-rule="evenodd" d="M4 2.75C3.44772 2.75 3 3.19772 3 3.75C3 4.30228 3.44772 4.75 4 4.75C4.55228 4.75 5 4.30228 5 3.75C5 3.19772 4.55228 2.75 4 2.75ZM2 3.75C2 2.64543 2.89543 1.75 4 1.75C5.10457 1.75 6 2.64543 6 3.75C6 4.85457 5.10457 5.75 4 5.75C2.89543 5.75 2 4.85457 2 3.75Z" fill="#595C61"/>
</svg>
