<svg width="51" height="50" viewBox="0 0 51 50" fill="none" xmlns="http://www.w3.org/2000/svg">
<path fill-rule="evenodd" clip-rule="evenodd" d="M4.17195 21.3555C3.01988 21.3555 2.08594 22.2882 2.08594 23.4388V40.1055C2.08594 41.2561 3.01988 42.1888 4.17195 42.1888H10.43C11.5821 42.1888 12.516 41.2561 12.516 40.1055V23.4388C12.516 22.2882 11.5821 21.3555 10.43 21.3555H4.17195Z" fill="white"/>
<path fill-rule="evenodd" clip-rule="evenodd" d="M20.0259 30.1055L27.2574 35.5221C27.6185 35.7926 28.0577 35.9388 28.509 35.9388H42.7634C45.6436 35.9388 47.9785 38.2706 47.9785 41.1471C47.9785 44.0236 45.6436 46.3555 42.7634 46.3555H25.3681C24.7766 46.3555 24.1882 46.2717 23.6202 46.1067L9.84766 42.1059L11.0129 38.105L24.7855 42.1059C24.9748 42.1609 25.1709 42.1888 25.3681 42.1888H42.7634C43.3395 42.1888 43.8065 41.7224 43.8065 41.1471C43.8065 40.5718 43.3395 40.1055 42.7634 40.1055H28.509C27.155 40.1055 25.8375 39.6668 24.7542 38.8555L17.5227 33.4388L20.0259 30.1055Z" fill="white"/>
<path fill-rule="evenodd" clip-rule="evenodd" d="M19.1336 25.5221H10.4316V21.3555H19.1336C20.7933 21.3555 22.3851 22.0139 23.5587 23.1861L30.6437 30.262C31.7265 31.3434 32.3348 32.81 32.3348 34.3393V35.6784C32.3348 38.1234 30.3501 40.1055 27.902 40.1055C26.9429 40.1055 26.0096 39.7948 25.2423 39.2201L17.5241 33.4388L20.0273 30.1055L27.7455 35.8867C27.7907 35.9205 27.8456 35.9388 27.902 35.9388C28.046 35.9388 28.1627 35.8222 28.1627 35.6784V34.3393C28.1627 33.9151 27.994 33.5082 27.6937 33.2083L20.6086 26.1323C20.2174 25.7416 19.6868 25.5221 19.1336 25.5221Z" fill="white"/>
<path fill-rule="evenodd" clip-rule="evenodd" d="M22.9473 6.25065C22.9473 3.94946 24.8151 2.08398 27.1193 2.08398H43.8074C46.1115 2.08398 47.9794 3.94946 47.9794 6.25065V16.6673C47.9794 18.9685 46.1115 20.834 43.8074 20.834H27.1193C24.8151 20.834 22.9473 18.9685 22.9473 16.6673V6.25065ZM30.2483 11.459C30.2483 8.5825 32.5832 6.25065 35.4633 6.25065C38.3435 6.25065 40.6784 8.5825 40.6784 11.459C40.6784 14.3355 38.3435 16.6673 35.4633 16.6673C32.5832 16.6673 30.2483 14.3355 30.2483 11.459Z" fill="white"/>
</svg>
