<svg width="24" height="25" viewBox="0 0 24 25" fill="none" xmlns="http://www.w3.org/2000/svg">
<path fill-rule="evenodd" clip-rule="evenodd" d="M7.45786 5.5472C7.39492 5.48427 7.29288 5.48427 7.22994 5.5472L5.83879 6.93835C4.99481 7.78233 4.76289 9.0613 5.25679 10.1479C7.08935 14.1795 10.3205 17.4107 14.3521 19.2432C15.4387 19.7371 16.7177 19.5052 17.5617 18.6612L18.9528 17.2701C19.0158 17.2072 19.0158 17.1051 18.9528 17.0422L17.0814 15.1708C17.0324 15.1217 16.9574 15.1095 16.8954 15.1406L15.8568 15.6599C14.5777 16.2994 13.0329 16.0487 12.0218 15.0375L9.46252 12.4783C8.45133 11.4671 8.20064 9.92229 8.84018 8.64323L9.35947 7.60466C9.39049 7.54261 9.37833 7.46767 9.32928 7.41862L7.45786 5.5472ZM5.81572 4.13299C6.65971 3.289 8.02809 3.289 8.87208 4.13299L10.7435 6.0044C11.4013 6.66218 11.5643 7.66706 11.1483 8.49908L10.629 9.53766C10.3745 10.0467 10.4743 10.6616 10.8767 11.0641L13.436 13.6233C13.8384 14.0258 14.4533 14.1255 14.9624 13.871L16.0009 13.3517C16.833 12.9357 17.8379 13.0988 18.4956 13.7565L20.367 15.628C21.211 16.4719 21.211 17.8403 20.367 18.6843L18.9759 20.0755C17.5424 21.5089 15.3701 21.9029 13.5245 21.064C9.0527 19.0313 5.46871 15.4473 3.43606 10.9755C2.59717 9.12995 2.99109 6.95762 4.42457 5.52414L5.81572 4.13299Z" fill="#73767C"/>
</svg>
