<svg width="51" height="50" viewBox="0 0 51 50" fill="none" xmlns="http://www.w3.org/2000/svg">
<path fill-rule="evenodd" clip-rule="evenodd" d="M2.08594 12.5C2.08594 9.04822 4.88776 6.25 8.34397 6.25H41.7202C45.1764 6.25 47.9782 9.04822 47.9782 12.5V16.6667C47.9782 17.8173 47.0442 18.75 45.8922 18.75H4.17195C3.01988 18.75 2.08594 17.8173 2.08594 16.6667V12.5ZM8.34397 10.4167C7.1919 10.4167 6.25796 11.3494 6.25796 12.5V14.5833H43.8062V12.5C43.8062 11.3494 42.8722 10.4167 41.7202 10.4167H8.34397Z" fill="white"/>
<path fill-rule="evenodd" clip-rule="evenodd" d="M22.9473 10.416V4.16602H27.1193V10.416H22.9473Z" fill="white"/>
<path fill-rule="evenodd" clip-rule="evenodd" d="M33.377 10.416V4.16602H37.549V10.416H33.377Z" fill="white"/>
<path fill-rule="evenodd" clip-rule="evenodd" d="M12.5156 10.416V4.16602H16.6876V10.416H12.5156Z" fill="white"/>
<path fill-rule="evenodd" clip-rule="evenodd" d="M4.17195 14.582C3.01988 14.582 2.08594 15.5148 2.08594 16.6654V41.6654C2.08594 45.1171 4.88776 47.9154 8.34397 47.9154H41.7202C45.1764 47.9154 47.9782 45.1171 47.9782 41.6654V16.6654C47.9782 15.5148 47.0442 14.582 45.8922 14.582H4.17195ZM22.3351 24.3885L16.077 30.6385C15.2624 31.4521 13.9416 31.4521 13.127 30.6385L8.95495 26.4718L11.905 23.5256L14.602 26.2191L19.385 21.4422L22.3351 24.3885ZM34.8511 30.6385L41.1092 24.3885L38.1591 21.4422L33.3761 26.2191L30.6791 23.5256L27.7291 26.4718L31.9011 30.6385C32.7157 31.4521 34.0365 31.4521 34.8511 30.6385ZM41.1092 34.8052L34.8511 41.0552C34.0365 41.8688 32.7157 41.8688 31.9011 41.0552L27.7291 36.8885L30.6791 33.9422L33.3761 36.6358L38.1591 31.8589L41.1092 34.8052ZM10.43 39.582H20.86V35.4154H10.43V39.582Z" fill="white"/>
</svg>
