<svg width="21" height="20" viewBox="0 0 21 20" fill="none" xmlns="http://www.w3.org/2000/svg">
<path fill-rule="evenodd" clip-rule="evenodd" d="M8.63477 2C5.32106 2 2.63477 4.68629 2.63477 8C2.63477 11.3137 5.32106 14 8.63477 14C11.9485 14 14.6348 11.3137 14.6348 8C14.6348 4.68629 11.9485 2 8.63477 2ZM0.634766 8C0.634766 3.58172 4.21649 0 8.63477 0C13.053 0 16.6348 3.58172 16.6348 8C16.6348 12.4183 13.053 16 8.63477 16C4.21649 16 0.634766 12.4183 0.634766 8Z" fill="white"/>
<path fill-rule="evenodd" clip-rule="evenodd" d="M12.1348 8C12.1348 6.067 10.5678 4.5 8.63477 4.5V2.5C11.6723 2.5 14.1348 4.96243 14.1348 8H12.1348Z" fill="white"/>
<path fill-rule="evenodd" clip-rule="evenodd" d="M14.3419 12.293L20.3419 18.293L18.9277 19.7072L12.9277 13.7072L14.3419 12.293Z" fill="white"/>
</svg>
