<svg width="21" height="18" viewBox="0 0 21 18" fill="none" xmlns="http://www.w3.org/2000/svg">
<path fill-rule="evenodd" clip-rule="evenodd" d="M20.1472 0.237665C20.431 0.478572 20.5575 0.857169 20.4755 1.22028L16.9755 16.7203C16.8991 17.0583 16.6532 17.3328 16.3255 17.4456C15.9978 17.5584 15.635 17.4934 15.3668 17.274L10.793 13.5318L8.87419 16.9857C8.67776 17.3392 8.2877 17.5396 7.88588 17.4935C7.48406 17.4473 7.14962 17.1636 7.0385 16.7747L5.20601 10.361L0.803912 9.4806C0.370814 9.39398 0.0458354 9.03349 0.00443142 8.59376C-0.0369726 8.15403 0.215005 7.73921 0.624323 7.57328L19.1243 0.0732756C19.4693 -0.0665803 19.8634 -0.00324143 20.1472 0.237665ZM4.46689 8.17358L6.19614 8.51943C6.56331 8.59287 6.85869 8.86526 6.96155 9.22529L8.29832 13.904L9.62587 11.5144C9.76977 11.2554 10.0211 11.0735 10.3122 11.0178C10.6032 10.9622 10.9039 11.0384 11.1333 11.2261L15.381 14.7015L18.1033 2.64529L4.46689 8.17358Z" fill="#0A58CA"/>
<path fill-rule="evenodd" clip-rule="evenodd" d="M20.0328 1.84641C20.4713 1.57037 20.6263 1.00521 20.39 0.54414C20.1537 0.0830729 19.6044 -0.121204 19.1243 0.0734404L0.624323 7.57344C0.215005 7.73938 -0.0369726 8.15419 0.00443142 8.59392C0.0458354 9.03365 0.370814 9.39414 0.803912 9.48076L5.80391 10.4808C6.05513 10.531 6.31604 10.4829 6.53284 10.3464L20.0328 1.84641Z" fill="#0A58CA"/>
<path fill-rule="evenodd" clip-rule="evenodd" d="M20.4755 1.22032C20.5776 0.767933 20.3553 0.304676 19.9385 0.101319C19.5217 -0.102038 19.0198 0.00787839 18.7261 0.366822L9.72607 11.3668C9.37635 11.7943 9.43935 12.4243 9.86679 12.774L15.3668 17.274C15.635 17.4935 15.9978 17.5584 16.3255 17.4456C16.6532 17.3328 16.8991 17.0584 16.9755 16.7203L20.4755 1.22032Z" fill="#0A58CA"/>
</svg>
