<svg width="11" height="8" viewBox="0 0 11 8" fill="none" xmlns="http://www.w3.org/2000/svg">
<path d="M8.61133 4.49623H9.60666C10.1129 4.49623 10.3661 4.32666 10.3661 3.98751C10.3661 3.85479 10.3415 3.65573 10.2923 3.39031C10.2481 3.11997 10.1965 2.85701 10.1375 2.60141L10.6978 2.45396C10.7568 2.70463 10.8109 2.97989 10.86 3.27971C10.9141 3.57954 10.9411 3.81301 10.9411 3.98013C10.9411 4.18657 10.892 4.38072 10.7937 4.56259C10.6954 4.73953 10.5455 4.88453 10.3439 4.99758C10.1424 5.10572 9.89666 5.15979 9.60666 5.15979H8.61133V4.49623ZM8.94311 0.84668H9.68039V1.58396H8.94311V0.84668ZM10.2628 0.84668H11.0001V1.58396H10.2628V0.84668Z" fill="#73767C"/>
<path d="M6.39451 6.36179C6.73857 6.36179 7.00399 6.32001 7.19077 6.23645C7.38246 6.15781 7.51518 6.03493 7.5889 5.86781C7.66263 5.70069 7.6995 5.47951 7.6995 5.20426V5.16002H6.88848C6.47561 5.16002 6.14137 5.03714 5.88578 4.79138C5.6351 4.54562 5.50977 4.20155 5.50977 3.75918C5.50977 3.45935 5.56629 3.18656 5.67934 2.9408C5.79731 2.69504 5.95951 2.50088 6.16595 2.35834C6.3773 2.2158 6.61569 2.14453 6.88111 2.14453C7.16128 2.14453 7.40704 2.21334 7.6184 2.35097C7.82975 2.4886 7.99195 2.68029 8.105 2.92605C8.21805 3.1669 8.27458 3.44461 8.27458 3.75918V4.49646H8.68746L8.73169 4.83561L8.68746 5.16002H8.27458V5.20426C8.27458 5.76459 8.12466 6.20696 7.82483 6.53137C7.52992 6.86069 7.05314 7.02534 6.39451 7.02534H5.60561V6.36179H6.39451ZM6.08485 3.75918C6.08485 4.02952 6.14874 4.22121 6.27654 4.33426C6.40434 4.4424 6.60832 4.49646 6.88848 4.49646H7.6995V3.75918C7.6995 3.45935 7.63068 3.22588 7.49306 3.05876C7.35543 2.88673 7.15145 2.80071 6.88111 2.80071C6.63044 2.80071 6.43383 2.88919 6.29129 3.06614C6.15366 3.23817 6.08485 3.46918 6.08485 3.75918Z" fill="#73767C"/>
<path d="M1.63086 6.32727H1.8373C2.06831 6.32727 2.21086 6.22405 2.26492 6.01762L2.50085 5.16974C2.60899 4.78635 2.77611 4.48652 3.00221 4.27025C3.22831 4.04907 3.5011 3.93848 3.82059 3.93848C4.07618 3.93848 4.30228 4.01466 4.49889 4.16703C4.6955 4.31449 4.84787 4.51601 4.95601 4.77161C5.06414 5.02228 5.11821 5.29508 5.11821 5.58999C5.11821 5.95372 5.0666 6.25355 4.96338 6.48948C4.86016 6.72049 4.72499 6.88761 4.55787 6.99083C4.39567 7.09896 4.22364 7.15303 4.04177 7.15303C3.855 7.15303 3.66822 7.11617 3.48144 7.04244C3.29466 6.97362 2.99975 6.836 2.5967 6.62956C2.4984 6.74261 2.38289 6.83108 2.25018 6.89498C2.11747 6.95888 1.97984 6.99083 1.8373 6.99083H1.63086V6.32727ZM2.86949 6.03973C3.22339 6.2216 3.47407 6.34202 3.62152 6.401C3.76898 6.45998 3.90906 6.48948 4.04177 6.48948C4.20889 6.48948 4.33423 6.42804 4.41779 6.30516C4.50135 6.17736 4.54313 5.93897 4.54313 5.58999C4.54313 5.28033 4.48169 5.03949 4.35881 4.86745C4.23593 4.69051 4.05652 4.60203 3.82059 4.60203C3.64364 4.60203 3.48881 4.66347 3.3561 4.78635C3.22831 4.90923 3.13 5.09601 3.06119 5.34669L2.86949 6.03973Z" fill="#73767C"/>
<path d="M1.59254 6.99142C1.10593 6.99142 0.769241 6.86117 0.582462 6.60066C0.395684 6.33524 0.302295 5.94693 0.302295 5.43575L0.294922 4.66406H0.870003L0.877375 5.43575C0.877375 5.70117 0.892121 5.89287 0.921612 6.01083C0.956019 6.1288 1.01992 6.21236 1.11331 6.26151C1.21161 6.30575 1.37136 6.32786 1.59254 6.32786H1.70313L1.74 6.66702L1.70313 6.99142H1.59254Z" fill="#73767C"/>
</svg>
